<svg xmlns="http://www.w3.org/2000/svg" viewBox="0 0 219.06 85.1">
    <defs>
        <style>.cls-1{fill:#f93d3d;stroke:#f93d3d;stroke-miterlimit:10;stroke-width:0.1px;}.cls-2{fill:#0e4365;}</style>
    </defs>
    <g id="Layer_2" data-name="Layer 2">
        <g id="Слой_1" data-name="Слой 1">
            <path class="cls-1"
                  d="M48.41,10.52l-.92,4.92a.76.76,0,0,0,.34.78.92.92,0,0,0,.91.06L53.54,14l4.8,2.32a.9.9,0,0,0,.4.09.92.92,0,0,0,.51-.15.77.77,0,0,0,.34-.78l-.92-4.92L62.55,7a.76.76,0,0,0,.22-.82.89.89,0,0,0-.7-.54L56.7,5,54.3.49A.9.9,0,0,0,53.06.18a.77.77,0,0,0-.31.31L50.35,5,45,5.67a.86.86,0,0,0-.7.54A.73.73,0,0,0,44.5,7Zm2.66-4a.85.85,0,0,0,.65-.44l1.83-3.41,1.82,3.4a.82.82,0,0,0,.65.44l4.08.55-3,2.65a.75.75,0,0,0-.25.71l.7,3.74L54,12.35a1,1,0,0,0-.81,0l-3.65,1.76.7-3.74a.8.8,0,0,0-.24-.7L47,7ZM75.29,35.28a.93.93,0,0,0-1,.23l-2.91,3.16-2.92-3.16a.93.93,0,0,0-1-.23.79.79,0,0,0-.57.75V43H63.14V31.88a.82.82,0,0,0-.56-.75.93.93,0,0,0-1,.22L59,34.05,56.53,18.19a.82.82,0,0,0-.44-.58L54,16.42h-.79L51,17.55a.79.79,0,0,0-.44.58L48,34l-2.6-2.7a.93.93,0,0,0-1-.22.8.8,0,0,0-.56.75v11.1H40.16V36a.81.81,0,0,0-.57-.75.93.93,0,0,0-1,.23l-2.87,3.21-2.95-3.16a.93.93,0,0,0-1-.23.79.79,0,0,0-.57.75v5.35a.86.86,0,0,0,1,.77.87.87,0,0,0,.77-.77v-3.2L35,40.42a.91.91,0,0,0,1.3,0l0,0,2-2.22v5.57a.82.82,0,0,0,.86.8h5.59a.84.84,0,0,0,.87-.79h0V34L48,36.34a.91.91,0,0,0,.9.23.82.82,0,0,0,.61-.65l2.65-17.18L53.56,18l1.42.74,2.65,17.18a.79.79,0,0,0,.61.65.91.91,0,0,0,.9-.23l2.33-2.41v9.79a.82.82,0,0,0,.86.8h5.49a.84.84,0,0,0,.87-.79h0V38.16l2,2.22a.91.91,0,0,0,1.3,0l0,0,2.08-2.24v3.2a.86.86,0,0,0,1,.77.87.87,0,0,0,.77-.77V36a.81.81,0,0,0-.53-.76Z"/>
            <circle class="cls-1" cx="150.73" cy="61.05" r="2.63"/>
            <path class="cls-2"
                  d="M21.37,59.67a6.66,6.66,0,0,0-1.27-2,6.75,6.75,0,0,0-1.89-1.42,8.66,8.66,0,0,0-2.37-.77,7.16,7.16,0,0,0,1.78-.92A6,6,0,0,0,19,53.21a5.59,5.59,0,0,0,.82-1.66,6.69,6.69,0,0,0,.28-1.94,7.11,7.11,0,0,0-.7-3.2,6.11,6.11,0,0,0-2-2.25,9.57,9.57,0,0,0-3.24-1.33,21.83,21.83,0,0,0-4.7-.44H1.82a2,2,0,0,0-1.29.43A1.69,1.69,0,0,0,0,44.21V69a1.69,1.69,0,0,0,.52,1.39,2,2,0,0,0,1.29.43h8a22.86,22.86,0,0,0,3.3-.21,15.7,15.7,0,0,0,2.79-.65,10.63,10.63,0,0,0,2.39-1.12,7.56,7.56,0,0,0,1.86-1.62A7.14,7.14,0,0,0,21.38,65a8.23,8.23,0,0,0,.44-2.74A7.28,7.28,0,0,0,21.37,59.67ZM6,46.67h3.1a8.72,8.72,0,0,1,2.27.24,4.12,4.12,0,0,1,1.41.69,2.84,2.84,0,0,1,.84,1.13,4.08,4.08,0,0,1,.28,1.54,4.24,4.24,0,0,1-.26,1.46,3.36,3.36,0,0,1-.78,1.21,3.68,3.68,0,0,1-1.32.81,6.12,6.12,0,0,1-2.12.3H6Zm9.1,17.44a3.53,3.53,0,0,1-1,1.23,4.36,4.36,0,0,1-1.51.75,7.51,7.51,0,0,1-2.16.25H6V58.26H9.62a10.93,10.93,0,0,1,2.73.29,5,5,0,0,1,1.72.81,3.48,3.48,0,0,1,1,1.31,4.3,4.3,0,0,1,.35,1.77,3.85,3.85,0,0,1-.31,1.71Z"/>
            <path class="cls-2"
                  d="M45,60.49a5.86,5.86,0,0,0-1.81-2.23,8.82,8.82,0,0,0-3.08-1.42,17.86,17.86,0,0,0-4.43-.49H33.84l-1.61.11v-6a.81.81,0,0,0-.7-.66,9.07,9.07,0,0,0-2.38-.22c-.53,0-1,0-1.33.05a5,5,0,0,0-.86.16,1.06,1.06,0,0,0-.47.27.59.59,0,0,0-.14.38V68.72a2.21,2.21,0,0,0,.5,1.6,2.48,2.48,0,0,0,1.62.64l1.38.11,1.48.08h3.11a19.62,19.62,0,0,0,5-.56A9.82,9.82,0,0,0,43,69.09a6.53,6.53,0,0,0,2-2.42,7.51,7.51,0,0,0,.66-3.17A7.13,7.13,0,0,0,45,60.49ZM38.5,66.21a5.36,5.36,0,0,1-3.41.88H33.57L32.24,67V60.66l1.25-.08H35a9.3,9.3,0,0,1,2.17.22,4,4,0,0,1,1.43.65,2.57,2.57,0,0,1,.79,1,3.57,3.57,0,0,1,.24,1.37,3,3,0,0,1-1,2.39Z"/>
            <path class="cls-2"
                  d="M54.49,70.05a.57.57,0,0,1-.14.38,1,1,0,0,1-.47.27,3.87,3.87,0,0,1-.89.16c-.38,0-.86,0-1.44,0a13.15,13.15,0,0,1-1.4,0,3.86,3.86,0,0,1-.9-.16.93.93,0,0,1-.48-.27.57.57,0,0,1-.14-.38V50.47a.59.59,0,0,1,.14-.38,1.09,1.09,0,0,1,.48-.27,4.46,4.46,0,0,1,.9-.16c.37,0,.84,0,1.4,0s1,0,1.43.06a4.49,4.49,0,0,1,.89.16,1.06,1.06,0,0,1,.47.27.59.59,0,0,1,.14.38V70.06Z"/>
            <path class="cls-2"
                  d="M76.12,66.93v1c0,.22-.05.44-.09.65a2,2,0,0,1-.14.43,1.82,1.82,0,0,1-.36.42,5.15,5.15,0,0,1-1,.61,9,9,0,0,1-1.55.63,12.57,12.57,0,0,1-1.88.46,12.2,12.2,0,0,1-2.09.18,11.82,11.82,0,0,1-4.25-.7,7.88,7.88,0,0,1-3.11-2.07,8.87,8.87,0,0,1-1.9-3.35,14.41,14.41,0,0,1-.64-4.52,14.66,14.66,0,0,1,.78-5.08,9.63,9.63,0,0,1,2.18-3.54A8.82,8.82,0,0,1,65.38,50a12.75,12.75,0,0,1,4.2-.68,11.29,11.29,0,0,1,1.83.15,12.14,12.14,0,0,1,1.68.42,10.12,10.12,0,0,1,1.4.59,5,5,0,0,1,.87.57,2.86,2.86,0,0,1,.36.41,1.4,1.4,0,0,1,.16.43c0,.22.07.43.09.65v.93a4.9,4.9,0,0,1-.23,1.79.7.7,0,0,1-.61.52,1.42,1.42,0,0,1-.84-.31l-1-.68a8.7,8.7,0,0,0-1.45-.68,5.93,5.93,0,0,0-2-.31,4.07,4.07,0,0,0-3.5,1.66,8.18,8.18,0,0,0-1.21,4.86,10.9,10.9,0,0,0,.3,2.79,5.65,5.65,0,0,0,.9,2,3.69,3.69,0,0,0,1.49,1.22,4.85,4.85,0,0,0,2.09.41A5.73,5.73,0,0,0,72,66.37a8.39,8.39,0,0,0,1.53-.76c.43-.28.8-.53,1.1-.76a1.33,1.33,0,0,1,.75-.34.63.63,0,0,1,.35.11A.82.82,0,0,1,76,65a6.71,6.71,0,0,1,.13.76C76.1,66.07,76.12,66.45,76.12,66.93Z"/>
            <path class="cls-2"
                  d="M100.73,55.43a8.23,8.23,0,0,0-5.38-5.5,15.08,15.08,0,0,0-4.85-.71,14.17,14.17,0,0,0-5,.81,9.24,9.24,0,0,0-5.69,5.85,14,14,0,0,0-.71,4.58,14.69,14.69,0,0,0,.65,4.61,8.38,8.38,0,0,0,2,3.4,8.67,8.67,0,0,0,3.4,2.11A14.31,14.31,0,0,0,90,71.3a14,14,0,0,0,5-.81,9.21,9.21,0,0,0,5.71-5.82,14.38,14.38,0,0,0,.7-4.56A15.17,15.17,0,0,0,100.73,55.43ZM95,63.06a5.79,5.79,0,0,1-.93,2.07,4.1,4.1,0,0,1-1.61,1.31,5.41,5.41,0,0,1-2.31.45,5.28,5.28,0,0,1-2.42-.49A3.78,3.78,0,0,1,86.22,65a6.25,6.25,0,0,1-.83-2.12,12.59,12.59,0,0,1-.26-2.67,10.88,10.88,0,0,1,.31-2.78,6.21,6.21,0,0,1,.94-2.08A4,4,0,0,1,88,54a5.56,5.56,0,0,1,2.28-.45,5.27,5.27,0,0,1,2.44.5,4.09,4.09,0,0,1,1.55,1.4,6.06,6.06,0,0,1,.83,2.12,13.33,13.33,0,0,1,.24,2.67A11.78,11.78,0,0,1,95,63.06Z"/>
            <path class="cls-2"
                  d="M121.24,52.16a12.1,12.1,0,0,1-.06,1.21,3.31,3.31,0,0,1-.17.77.9.9,0,0,1-.29.4.76.76,0,0,1-.38.11H115.1V70.06a.57.57,0,0,1-.14.38,1,1,0,0,1-.47.27,4.05,4.05,0,0,1-.9.16c-.38,0-.86,0-1.43,0a13.5,13.5,0,0,1-1.4,0,3.86,3.86,0,0,1-.9-.16,1,1,0,0,1-.47-.27.58.58,0,0,1-.13-.38V54.67H104a.66.66,0,0,1-.41-.12.8.8,0,0,1-.29-.41,3,3,0,0,1-.17-.79,8.45,8.45,0,0,1-.06-1.23,6.9,6.9,0,0,1,.07-1.11,3.22,3.22,0,0,1,.19-.74.89.89,0,0,1,.28-.41.68.68,0,0,1,.4-.12H120.3a.66.66,0,0,1,.38.12,1,1,0,0,1,.29.41,3.34,3.34,0,0,1,.17.76A10.77,10.77,0,0,1,121.24,52.16Z"/>
            <path class="cls-2"
                  d="M141.61,53.45a5.42,5.42,0,0,0-1.63-2.4,7.31,7.31,0,0,0-2.86-1.38,18.79,18.79,0,0,0-6.85-.24,19.23,19.23,0,0,0-2.39.54,13.92,13.92,0,0,0-1.9.7,4.42,4.42,0,0,0-1.14.7,1.61,1.61,0,0,0-.44.71,4,4,0,0,0-.12,1.08,5.62,5.62,0,0,0,.07.92,2.44,2.44,0,0,0,.2.7,1,1,0,0,0,.33.44.72.72,0,0,0,.45.15,2.25,2.25,0,0,0,1-.31c.39-.2.88-.43,1.48-.68a15.7,15.7,0,0,1,2-.68,10.44,10.44,0,0,1,2.62-.31,7.06,7.06,0,0,1,1.88.22,2.86,2.86,0,0,1,1.21.68,2.69,2.69,0,0,1,.65,1.15,5.87,5.87,0,0,1,.2,1.61v1.19h-2a27.44,27.44,0,0,0-4.87.4A11.17,11.17,0,0,0,126,59.87,5.57,5.57,0,0,0,123.86,62a5.93,5.93,0,0,0-.71,3,6.42,6.42,0,0,0,.56,2.77,5.38,5.38,0,0,0,1.57,2,6.8,6.8,0,0,0,2.4,1.21,10.45,10.45,0,0,0,3,.41,9,9,0,0,0,3.65-.72,9.31,9.31,0,0,0,2.93-2v1.56a.59.59,0,0,0,.2.48,1.28,1.28,0,0,0,.68.25,9.75,9.75,0,0,0,1.53.08,10.49,10.49,0,0,0,1.48-.08,1.59,1.59,0,0,0,.73-.25.59.59,0,0,0,.23-.48V56.94A10.61,10.61,0,0,0,141.61,53.45Zm-5.24,11.61a9.46,9.46,0,0,1-2.11,1.73,4.42,4.42,0,0,1-2.27.59,3.44,3.44,0,0,1-2.3-.7,2.37,2.37,0,0,1-.83-1.93,2.73,2.73,0,0,1,.29-1.28,2.46,2.46,0,0,1,.92-1,4.9,4.9,0,0,1,1.63-.59,13.1,13.1,0,0,1,2.42-.2h2.24v3.38Z"/>
            <path class="cls-2"
                  d="M174.32,44.76a9.82,9.82,0,0,1-.06,1.09,2.91,2.91,0,0,1-.17.72,1,1,0,0,1-.29.41.6.6,0,0,1-.38.13h-7.55V70a.59.59,0,0,1-.15.4,1.1,1.1,0,0,1-.5.29,5,5,0,0,1-.94.18,16.7,16.7,0,0,1-3,0,4.88,4.88,0,0,1-.94-.18,1.05,1.05,0,0,1-.5-.29.59.59,0,0,1-.15-.4V47.11h-7.55a.57.57,0,0,1-.4-.13.89.89,0,0,1-.28-.41,2.52,2.52,0,0,1-.17-.72,6.58,6.58,0,0,1-.06-1.09,7,7,0,0,1,.06-1.12,2.74,2.74,0,0,1,.17-.74.91.91,0,0,1,.28-.4.68.68,0,0,1,.4-.12H173.4a.66.66,0,0,1,.38.12,1,1,0,0,1,.29.4,3.18,3.18,0,0,1,.17.74A10.54,10.54,0,0,1,174.32,44.76Z"/>
            <path class="cls-2"
                  d="M187.58,70.79l-2.52,6.93a1.5,1.5,0,0,1-1.14.79,11.42,11.42,0,0,1-2.73.24,10.55,10.55,0,0,1-1.49-.08,2,2,0,0,1-.84-.25.56.56,0,0,1-.3-.44,1.3,1.3,0,0,1,.14-.64l2.77-6.56a1.47,1.47,0,0,1-.55-.41,1.66,1.66,0,0,1-.36-.58l-7.16-18a3.37,3.37,0,0,1-.3-1.17.77.77,0,0,1,.28-.64,1.86,1.86,0,0,1,.94-.32,17.14,17.14,0,0,1,1.76-.09h1.58a3.17,3.17,0,0,1,.91.16,1.09,1.09,0,0,1,.49.41,4.45,4.45,0,0,1,.33.78L184.28,64h.07l4.49-13.35a1.49,1.49,0,0,1,.36-.76,1.62,1.62,0,0,1,.78-.24,13.33,13.33,0,0,1,1.79-.09,15.57,15.57,0,0,1,1.67.09,2.12,2.12,0,0,1,1,.33.79.79,0,0,1,.31.65,3.11,3.11,0,0,1-.19,1Z"/>
            <path class="cls-2"
                  d="M218.6,55.8a10.22,10.22,0,0,0-1.48-3.42,7.31,7.31,0,0,0-2.62-2.32,8.33,8.33,0,0,0-3.89-.84,9.42,9.42,0,0,0-2.06.22,9,9,0,0,0-1.88.67,10.89,10.89,0,0,0-1.78,1.12,22,22,0,0,0-1.78,1.55v-2.3a.66.66,0,0,0-.12-.38.87.87,0,0,0-.41-.27,4.05,4.05,0,0,0-.77-.16,11.64,11.64,0,0,0-1.18-.05c-.4,0-.8,0-1.2.05a4.05,4.05,0,0,0-.77.16.82.82,0,0,0-.41.27.66.66,0,0,0-.12.38V77.82a.63.63,0,0,0,.14.4,1,1,0,0,0,.48.3,3.9,3.9,0,0,0,.9.19,15,15,0,0,0,2.84,0,4,4,0,0,0,.9-.19,1.06,1.06,0,0,0,.48-.3.63.63,0,0,0,.14-.4V68.6a14.91,14.91,0,0,0,1.44,1.19,8.33,8.33,0,0,0,1.41.84,6.38,6.38,0,0,0,1.47.5,7.22,7.22,0,0,0,1.67.16,9,9,0,0,0,3.89-.79,7.63,7.63,0,0,0,2.84-2.26,10.5,10.5,0,0,0,1.74-3.57,17.38,17.38,0,0,0,.59-4.71A18.23,18.23,0,0,0,218.6,55.8Zm-5.88,6.8a7.13,7.13,0,0,1-.76,2A4.34,4.34,0,0,1,210.64,66a3.38,3.38,0,0,1-1.95.55,3.93,3.93,0,0,1-2.33-.8A12.64,12.64,0,0,1,204,63.52V57.07a14.23,14.23,0,0,1,1.33-1.47,7.83,7.83,0,0,1,1.22-1,4.8,4.8,0,0,1,1.17-.54,4.43,4.43,0,0,1,1.15-.16,3.44,3.44,0,0,1,2,.54,4.06,4.06,0,0,1,1.26,1.44,7.17,7.17,0,0,1,.68,2,15,15,0,0,1,.2,2.4,10.92,10.92,0,0,1-.26,2.28Z"/>
            <path class="cls-2"
                  d="M4.34,79a3,3,0,0,1,1.13,1.15,3.45,3.45,0,0,1,0,3.3,2.91,2.91,0,0,1-1.13,1.15A3.16,3.16,0,0,1,2.72,85a3.73,3.73,0,0,1-1.41-.25,2.64,2.64,0,0,1-1-.74l.57-.56a2.45,2.45,0,0,0,1.84.74A2.26,2.26,0,0,0,3.77,84a2.3,2.3,0,0,0,.81-.74A2.41,2.41,0,0,0,5,82.14h-3V81.4H5a2.45,2.45,0,0,0-.41-1,2.16,2.16,0,0,0-.8-.7,2.25,2.25,0,0,0-1.07-.25,2.43,2.43,0,0,0-1.84.75l-.57-.57a2.78,2.78,0,0,1,1.06-.74,3.71,3.71,0,0,1,1.4-.25A3.16,3.16,0,0,1,4.34,79Z"/>
            <path class="cls-2" d="M11.34,82.2H10V85H9.14v-6.3H10v2.74h1.33l2-2.74h1l-2.25,3L14.41,85h-1Z"/>
            <path class="cls-2"
                  d="M18.23,84.62A2.93,2.93,0,0,1,17,83.47a3.31,3.31,0,0,1,0-3.3A3,3,0,0,1,18.23,79a3.49,3.49,0,0,1,1.71-.42,3.42,3.42,0,0,1,1.35.25,2.76,2.76,0,0,1,1.05.73l-.59.57A2.33,2.33,0,0,0,20,79.4a2.58,2.58,0,0,0-1.27.32,2.3,2.3,0,0,0-.89.86,2.49,2.49,0,0,0-.32,1.24,2.46,2.46,0,0,0,.32,1.24,2.32,2.32,0,0,0,.89.87,2.57,2.57,0,0,0,1.27.31,2.36,2.36,0,0,0,1.77-.75l.59.56a2.79,2.79,0,0,1-1.05.74,3.51,3.51,0,0,1-1.36.25A3.46,3.46,0,0,1,18.23,84.62Z"/>
            <path class="cls-2" d="M27.58,82.2H26.26V85h-.88v-6.3h.88v2.74h1.33l2-2.74h1l-2.25,3L30.64,85h-1Z"/>
            <path class="cls-2"
                  d="M38.56,78.67l-2.79,5.19a2.56,2.56,0,0,1-.79.93,1.73,1.73,0,0,1-1,.31,2.17,2.17,0,0,1-.84-.19l.23-.72a1.77,1.77,0,0,0,.59.12,1.12,1.12,0,0,0,1-.63l.15-.23-2.54-4.78h1l2,4,2.09-4Z"/>
            <path class="cls-2"
                  d="M45.67,79.26a2.18,2.18,0,0,1,0,3.22,2.9,2.9,0,0,1-1.92.58H42.19V85h-.9v-6.3h2.46A2.9,2.9,0,0,1,45.67,79.26ZM45,81.92a1.29,1.29,0,0,0,.45-1A1.27,1.27,0,0,0,45,79.82a2.06,2.06,0,0,0-1.31-.37H42.19v2.83h1.53A2.06,2.06,0,0,0,45,81.92Z"/>
            <path class="cls-2"
                  d="M50.63,84.62a2.93,2.93,0,0,1-1.19-1.15,3.31,3.31,0,0,1,0-3.3A3,3,0,0,1,50.63,79a3.49,3.49,0,0,1,1.71-.42,3.42,3.42,0,0,1,1.35.25,2.76,2.76,0,0,1,1.05.73l-.59.57a2.33,2.33,0,0,0-1.77-.75,2.58,2.58,0,0,0-1.27.32,2.3,2.3,0,0,0-.89.86,2.49,2.49,0,0,0-.32,1.24,2.46,2.46,0,0,0,.32,1.24,2.32,2.32,0,0,0,.89.87,2.57,2.57,0,0,0,1.27.31,2.36,2.36,0,0,0,1.77-.75l.59.56a2.79,2.79,0,0,1-1.05.74,3.51,3.51,0,0,1-1.36.25A3.46,3.46,0,0,1,50.63,84.62Z"/>
            <path class="cls-2" d="M57.78,78.67h.89v4.86l3.73-4.86h.82V85h-.88V80.12L58.61,85h-.83Z"/>
            <path class="cls-2"
                  d="M68.1,84.62a3,3,0,0,1-1.2-1.15,3.18,3.18,0,0,1-.44-1.65,3.23,3.23,0,0,1,.44-1.65A3.09,3.09,0,0,1,68.1,79a3.53,3.53,0,0,1,1.72-.42,3.49,3.49,0,0,1,1.71.42,3.09,3.09,0,0,1,1.2,1.15,3.38,3.38,0,0,1,0,3.3,3,3,0,0,1-1.2,1.15,3.49,3.49,0,0,1-1.71.42A3.53,3.53,0,0,1,68.1,84.62Zm3-.69a2.27,2.27,0,0,0,.87-.87,2.46,2.46,0,0,0,.32-1.24,2.49,2.49,0,0,0-.32-1.24,2.25,2.25,0,0,0-.87-.86,2.6,2.6,0,0,0-2.5,0,2.3,2.3,0,0,0-.89.86,2.49,2.49,0,0,0-.32,1.24,2.46,2.46,0,0,0,.32,1.24,2.32,2.32,0,0,0,.89.87,2.68,2.68,0,0,0,2.5,0Z"/>
            <path class="cls-2" d="M81.84,78.67V85h-.9V82.16H77.32V85h-.9v-6.3h.9v2.71h3.62V78.67Z"/>
            <path class="cls-2" d="M91,78.67V85h-.9V82.16H86.5V85h-.9v-6.3h.9v2.71h3.62V78.67Z"/>
            <path class="cls-2"
                  d="M95.89,84.62a3,3,0,0,1-1.2-1.15,3.17,3.17,0,0,1-.43-1.65,3.23,3.23,0,0,1,.43-1.65A3.09,3.09,0,0,1,95.89,79a3.53,3.53,0,0,1,1.72-.42,3.49,3.49,0,0,1,1.71.42,3.09,3.09,0,0,1,1.2,1.15,3.38,3.38,0,0,1,0,3.3,3,3,0,0,1-1.2,1.15,3.49,3.49,0,0,1-1.71.42A3.53,3.53,0,0,1,95.89,84.62Zm3-.69a2.27,2.27,0,0,0,.87-.87,2.36,2.36,0,0,0,.32-1.24,2.39,2.39,0,0,0-.32-1.24,2.25,2.25,0,0,0-.87-.86,2.47,2.47,0,0,0-1.25-.32,2.5,2.5,0,0,0-1.25.32,2.21,2.21,0,0,0-.88.86,2.39,2.39,0,0,0-.32,1.24,2.36,2.36,0,0,0,.32,1.24,2.23,2.23,0,0,0,.88.87,2.49,2.49,0,0,0,1.25.31A2.47,2.47,0,0,0,98.86,83.93Z"/>
            <path class="cls-2" d="M108.78,84.19V85h-4.57v-6.3h4.45v.78h-3.55v1.94h3.16v.76h-3.16v2Z"/>
            <path class="cls-2"
                  d="M116.22,78.67H121v.77h-3.86v1.8h2a2.7,2.7,0,0,1,1.71.46,1.64,1.64,0,0,1,.58,1.35,1.71,1.71,0,0,1-.63,1.43,2.89,2.89,0,0,1-1.81.49h-2.7Zm2.66,5.59a2,2,0,0,0,1.18-.3,1,1,0,0,0,.4-.87c0-.76-.52-1.14-1.58-1.14h-1.77v2.31Z"/>
            <path class="cls-2"
                  d="M131.45,79a3,3,0,0,1,1.15,1.15,3.45,3.45,0,0,1,0,3.3,3,3,0,0,1-1.15,1.15,3.19,3.19,0,0,1-1.63.42,3.16,3.16,0,0,1-1.54-.37,3,3,0,0,1-1.13-1,3.12,3.12,0,0,1-.51-1.48h-1.15V85h-.89v-6.3h.89v2.7h1.16a3.1,3.1,0,0,1,.53-1.43,3.14,3.14,0,0,1,1.12-1,3.33,3.33,0,0,1,1.52-.35A3.19,3.19,0,0,1,131.45,79Zm-.46,4.9a2.15,2.15,0,0,0,.83-.86,2.71,2.71,0,0,0,0-2.48,2.32,2.32,0,0,0-3.17-.86,2.26,2.26,0,0,0-.82.86,2.71,2.71,0,0,0,0,2.48,2.19,2.19,0,0,0,.82.86,2.36,2.36,0,0,0,2.34,0Z"/>
            <path class="cls-2"
                  d="M140.67,79.26a2.2,2.2,0,0,1,0,3.22,2.93,2.93,0,0,1-1.93.58h-1.55V85h-.9v-6.3h2.45A2.93,2.93,0,0,1,140.67,79.26ZM140,81.92a1.29,1.29,0,0,0,.45-1,1.27,1.27,0,0,0-.45-1.05,2,2,0,0,0-1.3-.37h-1.53v2.83h1.53A2,2,0,0,0,140,81.92Z"/>
            <path class="cls-2"
                  d="M145.63,84.62a3,3,0,0,1-1.2-1.15,3.18,3.18,0,0,1-.44-1.65,3.23,3.23,0,0,1,.44-1.65,3.09,3.09,0,0,1,1.2-1.15,3.71,3.71,0,0,1,3.43,0,3,3,0,0,1,1.19,1.15,3.31,3.31,0,0,1,0,3.3,2.93,2.93,0,0,1-1.19,1.15,3.71,3.71,0,0,1-3.43,0Zm3-.69a2.37,2.37,0,0,0,.88-.87,2.46,2.46,0,0,0,.32-1.24,2.49,2.49,0,0,0-.32-1.24,2.34,2.34,0,0,0-.88-.86,2.44,2.44,0,0,0-1.24-.32,2.56,2.56,0,0,0-1.26.32,2.27,2.27,0,0,0-.88.86,2.49,2.49,0,0,0-.32,1.24,2.46,2.46,0,0,0,.32,1.24,2.3,2.3,0,0,0,.88.87,2.56,2.56,0,0,0,1.26.31A2.43,2.43,0,0,0,148.59,83.93Z"/>
            <path class="cls-2"
                  d="M162.65,78.67h.9V85h-.74L159,80.27V85h-.9v-6.3h.74l3.78,4.7Zm2.49,2.67a1.46,1.46,0,0,1-.57-.53,1.49,1.49,0,0,1,0-1.49,1.43,1.43,0,0,1,.57-.52,1.87,1.87,0,0,1,.83-.18,1.83,1.83,0,0,1,.82.18,1.43,1.43,0,0,1,.57.52,1.43,1.43,0,0,1-.57,2,1.83,1.83,0,0,1-.82.18A1.87,1.87,0,0,1,165.14,81.34Zm-.59.89h2.84v.59h-2.84Zm.69-2.84a.91.91,0,0,0-.27.68.86.86,0,0,0,.28.67,1.11,1.11,0,0,0,1.43,0,.86.86,0,0,0,.28-.67.88.88,0,0,0-.28-.68,1,1,0,0,0-.71-.26A1.05,1.05,0,0,0,165.24,79.39Z"/>
            <path class="cls-2" d="M172.45,78.67V85h-.89V79.45h-1.42v-.78Z"/>
        </g>
    </g>
</svg>