<svg width="160" height="70" viewBox="0 0 160 70" fill="none" xmlns="http://www.w3.org/2000/svg">
<g clip-path="url(#clip0)">
<path d="M4.17031 65.1379C4.16841 65.4776 4.10487 65.8136 3.98336 66.1266C3.86184 66.4396 3.68474 66.7234 3.46219 66.9618C3.23964 67.2002 2.97603 67.3885 2.68646 67.5158C2.39689 67.6432 2.08706 67.7071 1.77473 67.704C1.44466 67.7108 1.11681 67.6439 0.811514 67.5072C0.50622 67.3705 0.229993 67.1671 -4.09028e-05 66.9095L0.343229 66.5679C0.532052 66.7805 0.759358 66.9481 1.01078 67.0603C1.26221 67.1724 1.53229 67.2266 1.80395 67.2194C2.265 67.2269 2.71133 67.0429 3.05196 66.7048C3.39259 66.3668 3.60188 65.9002 3.63715 65.4001H1.44607V64.8916H3.63715C3.59315 64.3986 3.38008 63.9418 3.04036 63.612C2.70065 63.2822 2.25921 63.1037 1.80395 63.112C1.53247 63.1062 1.26278 63.1611 1.01154 63.2731C0.760303 63.3852 0.532852 63.5521 0.343229 63.7635L-0.0146484 63.4139C0.309475 63.024 0.734136 62.7495 1.20389 62.6262C1.67365 62.5029 2.16667 62.5365 2.61859 62.7227C3.07051 62.9088 3.46033 63.2389 3.73714 63.6698C4.01396 64.1006 4.16492 64.6123 4.17031 65.1379Z" fill="black"/>
<path d="M8.96155 66.0595C8.89581 65.8536 8.77234 65.6755 8.60854 65.55C8.44475 65.4246 8.2489 65.3582 8.0486 65.3603H7.28902V67.6563H6.75586V62.6274H7.28902V64.836H7.98286C8.18367 64.8405 8.38056 64.7751 8.5448 64.6494C8.70903 64.5236 8.83202 64.344 8.89582 64.1369L9.80146 62.6274H10.4004L9.36325 64.3275C9.21493 64.6325 8.99588 64.8899 8.72783 65.0743C9.05211 65.2336 9.31181 65.516 9.45819 65.8688L10.5391 67.6563H9.91832L8.96155 66.0595Z" fill="black"/>
<path d="M16.6887 63.4139L16.3454 63.7476C16.1558 63.5362 15.9283 63.3693 15.6771 63.2572C15.4259 63.1452 15.1562 63.0903 14.8847 63.0961C14.3869 63.0961 13.9094 63.3112 13.5574 63.6941C13.2054 64.077 13.0077 64.5964 13.0077 65.1379C13.0077 65.6794 13.2054 66.1987 13.5574 66.5816C13.9094 66.9645 14.3869 67.1796 14.8847 67.1796C15.1563 67.1864 15.4262 67.132 15.6776 67.0199C15.929 66.9078 16.1563 66.7404 16.3454 66.5282L16.6887 66.8698C16.4586 67.1274 16.1824 67.3308 15.8771 67.4675C15.5718 67.6041 15.244 67.6711 14.9139 67.6643C14.5188 67.6652 14.1298 67.5581 13.7827 67.353C13.4355 67.1478 13.1413 66.8511 12.927 66.49C12.7127 66.129 12.5852 65.7151 12.5562 65.2865C12.5272 64.8579 12.5976 64.4283 12.761 64.037C12.9244 63.6457 13.1755 63.3053 13.4913 63.047C13.8071 62.7888 14.1775 62.6209 14.5684 62.5589C14.9594 62.4969 15.3584 62.5427 15.7289 62.6921C16.0993 62.8414 16.4294 63.0897 16.6887 63.4139Z" fill="black"/>
<path d="M21.3922 66.0595C21.3265 65.8536 21.203 65.6755 21.0392 65.55C20.8754 65.4246 20.6796 65.3582 20.4793 65.3603H19.7051V67.6563H19.1865V62.6274H19.7051V64.836H20.4354C20.6362 64.8405 20.8331 64.7751 20.9974 64.6494C21.1616 64.5236 21.2846 64.344 21.3484 64.1369L22.254 62.6274H22.8529L21.8158 64.3275C21.6675 64.6325 21.4484 64.8899 21.1804 65.0743C21.5047 65.2336 21.7644 65.516 21.9108 65.8688L22.9917 67.6563H22.349L21.3922 66.0595Z" fill="black"/>
<path d="M25.7233 67.6563L26.7239 65.8608L24.9199 62.6274H25.548L27.0088 65.2809L28.506 62.6194H29.1268L26.2784 67.6563H25.7233Z" fill="black"/>
<path d="M32.8516 62.6274C34.0494 62.6274 34.9112 63.3186 34.9112 64.4705C34.9112 65.6225 34.0567 66.3216 32.8516 66.3216H31.8948V67.6563H31.3909V62.6274H32.8516ZM32.8516 65.8052C33.6623 65.8052 34.378 65.4159 34.378 64.4785C34.378 63.541 33.6477 63.1597 32.8516 63.1597H31.8948V65.8052H32.8881H32.8516Z" fill="black"/>
<path d="M41.3676 63.4139L41.0244 63.7476C40.8347 63.5362 40.6073 63.3693 40.3561 63.2572C40.1048 63.1452 39.8351 63.0903 39.5637 63.0961C39.0658 63.0961 38.5884 63.3112 38.2364 63.6941C37.8844 64.077 37.6866 64.5964 37.6866 65.1379C37.6866 65.6794 37.8844 66.1987 38.2364 66.5816C38.5884 66.9645 39.0658 67.1796 39.5637 67.1796C39.8353 67.1868 40.1054 67.1327 40.3568 67.0205C40.6082 66.9084 40.8355 66.7408 41.0244 66.5282L41.3676 66.8698C41.1376 67.1274 40.8614 67.3308 40.5561 67.4675C40.2508 67.6041 39.9229 67.6711 39.5929 67.6643C39.1978 67.6652 38.8088 67.5581 38.4616 67.353C38.1145 67.1478 37.8202 66.8511 37.6059 66.49C37.3916 66.129 37.2641 65.7151 37.2351 65.2865C37.2061 64.8579 37.2765 64.4283 37.4399 64.037C37.6033 63.6457 37.8544 63.3053 38.1703 63.047C38.4861 62.7888 38.8564 62.6209 39.2474 62.5589C39.6384 62.4969 40.0374 62.5427 40.4078 62.6921C40.7783 62.8414 41.1083 63.0897 41.3676 63.4139Z" fill="black"/>
<path d="M46.8453 67.6563V63.684L44.0992 67.6563H43.807V62.6274H44.3329V66.56L47.0863 62.6274H47.3785V67.6563H46.8526H46.8453Z" fill="black"/>
<path d="M54.6748 65.1379C54.682 65.6546 54.5479 66.1619 54.2894 66.5955C54.031 67.029 53.6598 67.3692 53.2232 67.5727C52.7866 67.7763 52.3042 67.8341 51.8373 67.7387C51.3705 67.6433 50.9402 67.3991 50.6012 67.0371C50.2622 66.6751 50.0299 66.2116 49.9336 65.7056C49.8374 65.1996 49.8816 64.6739 50.0606 64.1953C50.2397 63.7167 50.5455 63.3068 50.9393 63.0177C51.333 62.7287 51.7969 62.5734 52.2719 62.5718C52.5846 62.5687 52.8948 62.6325 53.1848 62.7598C53.4747 62.8871 53.7388 63.0752 53.962 63.3135C54.1851 63.5518 54.3629 63.8355 54.4852 64.1486C54.6075 64.4616 54.6719 64.7978 54.6748 65.1379ZM50.4022 65.1379C50.4022 65.5421 50.5125 65.9371 50.719 66.2731C50.9256 66.609 51.2192 66.8707 51.5626 67.025C51.906 67.1793 52.2838 67.2193 52.6481 67.1398C53.0124 67.0604 53.3469 66.8652 53.6091 66.5788C53.8713 66.2925 54.0495 65.9279 54.1211 65.5313C54.1927 65.1348 54.1545 64.724 54.0113 64.351C53.8681 63.9781 53.6264 63.6598 53.3167 63.4364C53.0071 63.213 52.6435 63.0946 52.2719 63.0961C52.0228 63.0886 51.7749 63.1361 51.5433 63.2358C51.3116 63.3355 51.1009 63.4854 50.924 63.6763C50.7472 63.8672 50.6078 64.0952 50.5143 64.3464C50.4208 64.5976 50.3752 64.8669 50.3803 65.1379H50.4022Z" fill="black"/>
<path d="M60.2255 67.6563V65.3683H57.6838V67.6563H57.158V62.6274H57.6838V64.8439H60.189V62.6274H60.7148V67.6563H60.189H60.2255Z" fill="black"/>
<path d="M66.5139 67.6563V65.3683H64.0088V67.6563H63.4829V62.6274H64.0088V64.8439H66.5139V62.6274H67.0397V67.6563H66.5139Z" fill="black"/>
<path d="M74.3434 65.1379C74.3506 65.6546 74.2165 66.1619 73.958 66.5955C73.6995 67.029 73.3284 67.3692 72.8918 67.5727C72.4552 67.7763 71.9728 67.8341 71.5059 67.7387C71.039 67.6433 70.6088 67.3991 70.2698 67.0371C69.9308 66.6751 69.6984 66.2116 69.6022 65.7056C69.5059 65.1996 69.5502 64.6739 69.7292 64.1953C69.9083 63.7167 70.2141 63.3068 70.6079 63.0177C71.0016 62.7287 71.4655 62.5734 71.9405 62.5718C72.2532 62.5687 72.5634 62.6325 72.8533 62.7598C73.1433 62.8871 73.4074 63.0752 73.6305 63.3135C73.8537 63.5518 74.0315 63.8355 74.1538 64.1486C74.2761 64.4616 74.3405 64.7978 74.3434 65.1379ZM70.0708 65.1379C70.0708 65.5421 70.181 65.9371 70.3876 66.2731C70.5942 66.609 70.8878 66.8707 71.2312 67.025C71.5746 67.1793 71.9524 67.2193 72.3167 67.1398C72.681 67.0604 73.0154 66.8652 73.2776 66.5788C73.5398 66.2925 73.718 65.9279 73.7896 65.5313C73.8612 65.1348 73.823 64.724 73.6798 64.351C73.5366 63.9781 73.2949 63.6598 72.9853 63.4364C72.6757 63.213 72.312 63.0946 71.9405 63.0961C71.6957 63.0961 71.4533 63.1492 71.2276 63.2522C71.0019 63.3553 70.7974 63.5064 70.626 63.6965C70.4546 63.8866 70.3198 64.1121 70.2295 64.3596C70.1391 64.6071 70.0951 64.8717 70.1 65.1379H70.0708Z" fill="black"/>
<path d="M79.7553 64.8916V65.416H77.4474V67.1717H79.9014V67.6961H76.9215V62.6671H79.9014V63.1915H77.4474V64.8916H79.7553Z" fill="black"/>
<path d="M87.8842 64.6135C88.9359 64.6135 89.4545 65.2014 89.4545 66.1389C89.4545 67.0764 88.9871 67.6563 87.8842 67.6563H85.9122V62.6274H88.8994V63.1517H86.4381V64.6215H87.8988L87.8842 64.6135ZM87.8842 67.132C88.673 67.132 88.9432 66.7745 88.9432 66.1389C88.9516 65.9916 88.9287 65.8442 88.8762 65.7081C88.8238 65.572 88.7432 65.4509 88.6408 65.3541C88.5384 65.2573 88.4169 65.1874 88.2857 65.15C88.1545 65.1125 88.0171 65.1083 87.8842 65.1379H86.4235V67.132H87.8842Z" fill="black"/>
<path d="M98.0654 65.1379C98.0598 65.8021 97.8212 66.4388 97.3984 66.918C96.9756 67.3973 96.4005 67.6828 95.7907 67.7163C95.1808 67.7497 94.5823 67.5286 94.1173 67.0981C93.6523 66.6676 93.356 66.0602 93.2889 65.4001H92.449V67.6563H91.9231V62.6274H92.449V64.8916H93.2889C93.3555 64.2325 93.6506 63.6258 94.1141 63.1951C94.5776 62.7644 95.1746 62.5421 95.7835 62.5735C96.3924 62.6048 96.9674 62.8876 97.3914 63.364C97.8154 63.8405 98.0564 64.4749 98.0654 65.1379ZM97.5396 65.1379C97.5381 64.7363 97.4274 64.3442 97.2214 64.011C97.0154 63.6777 96.7233 63.4183 96.382 63.2653C96.0406 63.1124 95.6653 63.0728 95.3033 63.1515C94.9413 63.2302 94.6088 63.4238 94.3478 63.7077C94.0867 63.9917 93.9088 64.3533 93.8364 64.7471C93.764 65.1409 93.8004 65.5492 93.9411 65.9205C94.0817 66.2918 94.3202 66.6095 94.6265 66.8336C94.9329 67.0577 95.2934 67.1781 95.6625 67.1797C95.9098 67.1829 96.1552 67.1322 96.3843 67.0307C96.6134 66.9293 96.8215 66.779 96.9963 66.5888C97.1712 66.3985 97.3094 66.1722 97.4027 65.923C97.496 65.6738 97.5425 65.4069 97.5396 65.1379Z" fill="black"/>
<path d="M102.141 62.6274C103.339 62.6274 104.2 63.3186 104.2 64.4705C104.2 65.6225 103.339 66.3216 102.141 66.3216H101.177V67.6563H100.651V62.6274H102.112H102.141ZM102.141 65.8052C102.952 65.8052 103.667 65.4159 103.667 64.4785C103.667 63.541 102.937 63.1597 102.141 63.1597H101.14V65.8052H102.141Z" fill="black"/>
<path d="M111.278 65.1379C111.285 65.6546 111.151 66.1619 110.892 66.5955C110.634 67.029 110.263 67.3692 109.826 67.5727C109.39 67.7763 108.907 67.8341 108.44 67.7387C107.973 67.6433 107.543 67.3991 107.204 67.0371C106.865 66.6751 106.633 66.2116 106.537 65.7056C106.44 65.1996 106.484 64.6739 106.664 64.1953C106.843 63.7167 107.148 63.3068 107.542 63.0177C107.936 62.7287 108.4 62.5734 108.875 62.5718C109.187 62.5687 109.498 62.6325 109.788 62.7598C110.078 62.8871 110.342 63.0752 110.565 63.3135C110.788 63.5518 110.966 63.8355 111.088 64.1486C111.21 64.4616 111.275 64.7978 111.278 65.1379ZM107.005 65.1379C107.007 65.5398 107.117 65.9323 107.324 66.2657C107.53 66.5991 107.823 66.8585 108.164 67.0112C108.506 67.164 108.882 67.2031 109.244 67.1237C109.606 67.0444 109.939 66.85 110.199 66.5653C110.46 66.2805 110.638 65.9181 110.709 65.5238C110.781 65.1295 110.743 64.721 110.602 64.3498C110.46 63.9787 110.22 63.6615 109.913 63.4384C109.606 63.2152 109.244 63.0961 108.875 63.0961C108.628 63.0918 108.382 63.1417 108.153 63.2429C107.924 63.3441 107.716 63.4945 107.541 63.685C107.367 63.8756 107.229 64.1025 107.137 64.3521C107.045 64.6017 107 64.869 107.005 65.1379Z" fill="black"/>
<path d="M35.3567 8.36568L34.6848 12.2744C34.6656 12.3928 34.679 12.5148 34.7231 12.625C34.7673 12.7352 34.8403 12.8288 34.9331 12.8941C35.0308 12.9635 35.1433 13.0043 35.2597 13.0126C35.3761 13.021 35.4925 12.9966 35.5978 12.9418L39.1035 11.0986L42.6092 12.9418C42.7005 12.989 42.8003 13.0134 42.9014 13.0133C43.0336 13.0143 43.1632 12.9728 43.2738 12.8941C43.3666 12.8288 43.4397 12.7352 43.4838 12.625C43.528 12.5148 43.5413 12.3928 43.5222 12.2744L42.8502 8.36568L45.684 5.60096C45.7682 5.52274 45.8286 5.41863 45.8573 5.30234C45.8859 5.18604 45.8816 5.06303 45.8447 4.9495C45.8039 4.83386 45.7346 4.73267 45.6444 4.657C45.5542 4.58133 45.4466 4.53411 45.3334 4.52049L41.4114 3.94848L39.6586 0.397232C39.6004 0.29017 39.5177 0.201444 39.4184 0.139804C39.3191 0.0781649 39.2068 0.0457458 39.0925 0.0457458C38.9782 0.0457458 38.8659 0.0781649 38.7666 0.139804C38.6674 0.201444 38.5846 0.29017 38.5265 0.397232L36.7736 3.94848L32.8516 4.51254C32.7384 4.52616 32.6308 4.57339 32.5407 4.64905C32.4505 4.72472 32.3812 4.82591 32.3403 4.94155C32.3035 5.05508 32.2991 5.1781 32.3278 5.29439C32.3565 5.41068 32.4169 5.5148 32.501 5.59301L35.3567 8.36568ZM37.2995 5.18783C37.3984 5.17473 37.4931 5.13619 37.5757 5.0754C37.6582 5.01462 37.7263 4.93334 37.7742 4.83827L39.1108 2.12916L40.44 4.83033C40.488 4.92539 40.5561 5.00667 40.6386 5.06746C40.7212 5.12824 40.8158 5.16678 40.9148 5.17989L43.8946 5.61684L41.7036 7.72217C41.6307 7.79085 41.5756 7.87898 41.5436 7.97789C41.5115 8.07679 41.5038 8.18306 41.521 8.28623L42.0322 11.2575L39.4248 9.81955C39.3326 9.77101 39.2315 9.7458 39.129 9.7458C39.0266 9.7458 38.9255 9.77101 38.8332 9.81955L36.1674 11.2178L36.6787 8.24651C36.6954 8.14525 36.6881 8.04101 36.6575 7.94368C36.6268 7.84635 36.5738 7.75916 36.5034 7.69039L34.3123 5.58506L37.2995 5.18783ZM54.9888 28.0365C54.8642 27.9847 54.7281 27.9743 54.598 28.0069C54.468 28.0394 54.3497 28.1133 54.2584 28.2193L52.1331 30.7298L50.0005 28.2193C49.9092 28.1133 49.7909 28.0394 49.6609 28.0069C49.5308 27.9743 49.3948 27.9847 49.2701 28.0365C49.1517 28.0752 49.0476 28.1537 48.9728 28.2607C48.898 28.3678 48.8563 28.4979 48.8538 28.6324V34.1539H46.1149V25.3354C46.1129 25.2019 46.0723 25.0725 45.9989 24.9656C45.9255 24.8586 45.823 24.7796 45.7059 24.7395C45.582 24.6867 45.4464 24.6751 45.3163 24.7062C45.1863 24.7373 45.0677 24.8097 44.9756 24.9143L43.0766 27.0594L41.2873 14.4592C41.271 14.3602 41.2334 14.2668 41.1776 14.1867C41.1217 14.1066 41.0492 14.0421 40.9659 13.9984L39.4248 13.053H38.8479L37.2338 13.9507C37.1505 13.9944 37.078 14.059 37.0221 14.1391C36.9662 14.2192 36.9286 14.3126 36.9124 14.4115L35.0427 27.0196L33.1437 24.8746C33.0516 24.77 32.933 24.6976 32.803 24.6665C32.6729 24.6353 32.5373 24.647 32.4134 24.6998C32.2963 24.7398 32.1938 24.8189 32.1204 24.9259C32.047 25.0328 32.0064 25.1622 32.0044 25.2957V34.1142H29.3313V28.5927C29.3287 28.4582 29.2871 28.3281 29.2123 28.221C29.1375 28.114 29.0334 28.0355 28.915 27.9968C28.7903 27.9449 28.6543 27.9346 28.5242 27.9671C28.3941 27.9997 28.2759 28.0736 28.1846 28.1796L26.0885 30.7298L23.9339 28.2193C23.8426 28.1133 23.7244 28.0394 23.5943 28.0069C23.4642 27.9743 23.3282 27.9847 23.2035 28.0365C23.0851 28.0752 22.981 28.1537 22.9062 28.2607C22.8314 28.3678 22.7897 28.4979 22.7872 28.6324V32.8828C22.804 33.0523 22.8778 33.2091 22.9944 33.323C23.111 33.4369 23.2622 33.4999 23.419 33.4999C23.5757 33.4999 23.7269 33.4369 23.8436 33.323C23.9602 33.2091 24.034 33.0523 24.0508 32.8828V30.3405L25.5699 32.1201C25.6325 32.1902 25.7075 32.246 25.7903 32.2841C25.8731 32.3222 25.962 32.3418 26.0519 32.3418C26.1418 32.3418 26.2308 32.3222 26.3136 32.2841C26.3964 32.246 26.4713 32.1902 26.534 32.1201L27.9947 30.3564V34.7815C27.9975 34.8688 28.0162 34.9547 28.0498 35.034C28.0834 35.1134 28.1311 35.1847 28.1902 35.2439C28.2493 35.303 28.3187 35.3488 28.3942 35.3785C28.4697 35.4082 28.5499 35.4214 28.6301 35.4171H32.7055C32.7857 35.4214 32.8659 35.4082 32.9415 35.3785C33.017 35.3488 33.0863 35.303 33.1454 35.2439C33.2045 35.1847 33.2523 35.1134 33.2858 35.034C33.3194 34.9547 33.3381 34.8688 33.3409 34.7815V27.0037L35.0427 28.8787C35.1275 28.9698 35.2331 29.0348 35.3486 29.0669C35.4641 29.099 35.5854 29.0971 35.7 29.0614C35.8121 29.0312 35.9139 28.9664 35.9929 28.8748C36.072 28.7832 36.125 28.6686 36.1455 28.545L38.081 14.8962L39.1181 14.3162L40.1552 14.9041L42.0907 28.5529C42.1112 28.6766 42.1642 28.7911 42.2433 28.8827C42.3223 28.9744 42.424 29.0392 42.5362 29.0693C42.6508 29.1051 42.7721 29.107 42.8876 29.0749C43.0031 29.0427 43.1087 28.9778 43.1935 28.8866L44.8952 26.972V34.7497C44.898 34.8371 44.9168 34.9229 44.9503 35.0023C44.9839 35.0816 45.0316 35.153 45.0907 35.2121C45.1499 35.2712 45.2192 35.317 45.2947 35.3467C45.3702 35.3765 45.4504 35.3896 45.5306 35.3853H49.533C49.6132 35.3896 49.6934 35.3765 49.769 35.3467C49.8445 35.317 49.9138 35.2712 49.9729 35.2121C50.032 35.153 50.0798 35.0816 50.1133 35.0023C50.1469 34.9229 50.1656 34.8371 50.1684 34.7497V30.3246L51.6292 32.0883C51.6918 32.1585 51.7667 32.2142 51.8495 32.2523C51.9323 32.2904 52.0213 32.31 52.1112 32.31C52.2011 32.31 52.2901 32.2904 52.3729 32.2523C52.4557 32.2142 52.5306 32.1585 52.5932 32.0883L54.1124 30.3087V32.851C54.1292 33.0205 54.2029 33.1773 54.3196 33.2912C54.4362 33.4051 54.5874 33.4682 54.7441 33.4682C54.9009 33.4682 55.0521 33.4051 55.1687 33.2912C55.2853 33.1773 55.3591 33.0205 55.3759 32.851V28.6006C55.3769 28.4687 55.3403 28.3397 55.2709 28.2316C55.2015 28.1234 55.103 28.0413 54.9888 27.9968V28.0365Z" fill="#F93D3D" stroke="#F93D3D" stroke-width="0.1" stroke-miterlimit="10"/>
<path d="M110.087 50.5992C111.148 50.5992 112.008 49.6638 112.008 48.5098C112.008 47.3559 111.148 46.4204 110.087 46.4204C109.026 46.4204 108.166 47.3559 108.166 48.5098C108.166 49.6638 109.026 50.5992 110.087 50.5992Z" fill="#F93D3D" stroke="#F93D3D" stroke-width="0.1" stroke-miterlimit="10"/>
<path d="M15.608 47.4135C15.3906 46.8266 15.0763 46.2881 14.6805 45.8245C14.2861 45.3617 13.8185 44.9796 13.3001 44.6964C12.7546 44.399 12.1711 44.1928 11.5691 44.0847C12.0331 43.9118 12.4712 43.6655 12.8692 43.3538C13.2519 43.0577 13.5875 42.6954 13.8625 42.2812C14.1273 41.8804 14.3296 41.4348 14.4614 40.9624C14.5999 40.4627 14.6688 39.9432 14.6659 39.4212C14.6849 38.5415 14.5096 37.6696 14.1546 36.8789C13.8153 36.1577 13.3125 35.5425 12.6939 35.0914C11.9718 34.5833 11.1695 34.2251 10.3275 34.0347C9.19858 33.7813 8.04739 33.664 6.89482 33.6852H1.32948C0.988381 33.6758 0.655048 33.7967 0.387311 34.0268C0.251372 34.1676 0.14657 34.3402 0.0807871 34.5315C0.0150046 34.7227 -0.0100453 34.9278 0.00752377 35.1311V54.802C-0.0100453 55.0053 0.0150046 55.2103 0.0807871 55.4016C0.14657 55.5928 0.251372 55.7654 0.387311 55.9063C0.655048 56.1363 0.988381 56.2572 1.32948 56.2479H7.17236C7.97834 56.2532 8.78368 56.1974 9.58254 56.081C10.275 55.9776 10.9571 55.8047 11.6202 55.5646C12.2324 55.3441 12.8183 55.0454 13.3658 54.6748C13.879 54.3276 14.3376 53.8931 14.7243 53.3878C15.1108 52.8736 15.4123 52.2903 15.6153 51.6638C15.8373 50.9639 15.9461 50.2274 15.9367 49.487C15.9494 48.7794 15.8379 48.0756 15.608 47.4135ZM4.36777 37.0855H6.63189C7.18986 37.0687 7.7474 37.1328 8.28981 37.2761C8.6634 37.3819 9.01362 37.5683 9.31961 37.8243C9.59155 38.0613 9.80283 38.3705 9.93312 38.722C10.0747 39.1112 10.1442 39.527 10.1376 39.9455C10.1387 40.3414 10.0744 40.7343 9.94772 41.1054C9.82584 41.4679 9.63123 41.7963 9.37805 42.0667C9.10215 42.353 8.77356 42.5723 8.41397 42.7102C7.91446 42.8868 7.39053 42.9674 6.8656 42.9486H4.36777V37.0855ZM11.014 50.9409C10.8436 51.3238 10.5936 51.6584 10.2837 51.9181C9.95387 52.1905 9.57969 52.3926 9.18085 52.5139C8.66595 52.6591 8.13504 52.7259 7.60327 52.7125H4.36777V46.2933H7.02628C7.69726 46.2764 8.36742 46.3539 9.02017 46.5237C9.47383 46.6459 9.90078 46.8646 10.2764 47.1672C10.5946 47.4437 10.8454 47.8011 11.0067 48.2079C11.1831 48.6515 11.2702 49.1309 11.2624 49.6141C11.2855 50.08 11.2079 50.5452 11.036 50.9726L11.014 50.9409Z" fill="#0E4365"/>
<path d="M32.8516 48.0649C32.5547 47.363 32.1001 46.7537 31.5296 46.2933C30.8549 45.7607 30.0906 45.3774 29.2801 45.1651C28.2214 44.8855 27.134 44.7546 26.0446 44.7758C25.5577 44.7758 25.1146 44.7758 24.7154 44.7758L23.5395 44.8632V40.0965C23.5204 39.9595 23.4597 39.8334 23.367 39.7383C23.2744 39.6433 23.1551 39.5848 23.0282 39.5721C22.4587 39.4292 21.874 39.3704 21.29 39.3973C20.9053 39.3973 20.5815 39.4106 20.3186 39.4371C20.1057 39.4549 19.8951 39.4975 19.6905 39.5642C19.5601 39.5999 19.4413 39.6742 19.3472 39.7787C19.2803 39.8623 19.2439 39.9697 19.245 40.0806V54.6033C19.2116 55.0624 19.3425 55.5177 19.6102 55.8745C19.9361 56.1921 20.3558 56.3725 20.7933 56.3829L21.8012 56.4703L22.8822 56.5339H24.0142H25.1536C26.3834 56.5576 27.6109 56.408 28.8054 56.089C29.7304 55.879 30.6087 55.4741 31.3909 54.8973C32.0159 54.3971 32.5177 53.7366 32.8516 52.9747C33.1796 52.1836 33.3442 51.324 33.3336 50.4562C33.3358 49.6304 33.1713 48.814 32.8516 48.0649ZM28.1188 52.6092C27.3838 53.1385 26.507 53.3846 25.6283 53.3084C25.2096 53.3084 24.8395 53.3084 24.5182 53.3084L23.5468 53.221V48.2L24.4597 48.1364C24.7811 48.1364 25.1365 48.1364 25.5261 48.1364C26.0589 48.1257 26.591 48.1844 27.111 48.3112C27.4885 48.4019 27.8443 48.5778 28.1554 48.8276C28.408 49.0332 28.6069 49.3071 28.7324 49.6221C28.8549 49.9691 28.9144 50.3387 28.9076 50.7105C28.9205 51.0687 28.8588 51.4255 28.7273 51.7543C28.5958 52.083 28.3978 52.3753 28.1481 52.6092H28.1188Z" fill="#0E4365"/>
<path d="M39.7973 55.66C39.7983 55.7708 39.7619 55.8782 39.695 55.9619C39.6009 56.0664 39.4821 56.1406 39.3517 56.1764C39.14 56.2443 38.922 56.2869 38.7017 56.3035C38.4291 56.33 38.0785 56.3432 37.65 56.3432C37.2215 56.3432 36.8807 56.33 36.6275 56.3035C36.4049 56.2861 36.1846 56.2435 35.9702 56.1764C35.8372 56.142 35.7157 56.0676 35.6196 55.9619C35.5527 55.8782 35.5163 55.7708 35.5174 55.66V40.1044C35.5163 39.9936 35.5527 39.8861 35.6196 39.8025C35.7157 39.6967 35.8372 39.6224 35.9702 39.588C36.1846 39.5209 36.4049 39.4783 36.6275 39.4609C36.9002 39.4344 37.241 39.4212 37.65 39.4212C38.059 39.4212 38.4071 39.4371 38.6944 39.4688C38.9147 39.4854 39.1327 39.528 39.3444 39.596C39.4748 39.6317 39.5936 39.7059 39.6877 39.8105C39.7546 39.8941 39.791 40.0015 39.79 40.1124V55.6679L39.7973 55.66Z" fill="#0E4365"/>
<path d="M55.595 53.1812C55.595 53.4831 55.595 53.748 55.595 53.9757C55.5828 54.1491 55.5609 54.3216 55.5293 54.4921C55.5077 54.61 55.4734 54.7246 55.4271 54.8337C55.3577 54.9605 55.2687 55.0734 55.1641 55.1674C54.9384 55.3586 54.6934 55.5212 54.4338 55.652C54.0703 55.8539 53.6916 56.0213 53.3017 56.1525C52.8529 56.311 52.394 56.4332 51.9286 56.518C51.4245 56.6132 50.9138 56.661 50.4022 56.661C49.3451 56.6808 48.2935 56.4924 47.2982 56.1049C46.4323 55.7594 45.6539 55.1958 45.0267 54.4603C44.393 53.6925 43.9196 52.7846 43.639 51.7989C43.3115 50.6359 43.1537 49.4241 43.1716 48.2079C43.1443 46.8368 43.3371 45.4711 43.7413 44.1721C44.0768 43.1193 44.6203 42.1594 45.3335 41.3597C46.0144 40.6176 46.8409 40.0526 47.751 39.7072C48.7373 39.3367 49.775 39.1539 50.8185 39.1669C51.2663 39.1654 51.7134 39.2053 52.1551 39.2861C52.5714 39.3625 52.9816 39.4741 53.3821 39.6198C53.7341 39.7454 54.0761 39.9022 54.4046 40.0885C54.6324 40.2109 54.8458 40.363 55.04 40.5414C55.139 40.6384 55.2272 40.7477 55.3029 40.8671C55.3596 40.9728 55.3992 41.0884 55.4198 41.2087C55.4513 41.3792 55.4733 41.5517 55.4855 41.7251C55.4855 41.9264 55.4855 42.1727 55.4855 42.464C55.5127 42.9453 55.4557 43.4278 55.3175 43.886C55.2911 43.9962 55.2342 44.095 55.1545 44.1688C55.0748 44.2427 54.9762 44.2882 54.872 44.2992C54.6491 44.2874 54.4349 44.2015 54.2585 44.0529C54.0442 43.8887 53.8008 43.7086 53.5281 43.5126C53.1926 43.2945 52.8378 43.1135 52.4691 42.9724C51.9991 42.7985 51.5048 42.7151 51.0084 42.7261C50.5151 42.6976 50.0231 42.8033 49.5768 43.0335C49.1305 43.2638 48.7439 43.6114 48.4521 44.0449C47.7932 45.1996 47.4841 46.5501 47.5684 47.906C47.5579 48.6518 47.6315 49.3962 47.7875 50.1226C47.9109 50.6932 48.134 51.2326 48.4448 51.7115C48.7231 52.1329 49.0984 52.4672 49.5331 52.6807C50.0145 52.9073 50.5351 53.0184 51.0595 53.0065C51.5793 53.02 52.0969 52.9284 52.586 52.7363C52.9758 52.5755 53.3501 52.3733 53.7034 52.1326C54.0199 51.9101 54.2877 51.7088 54.5068 51.5288C54.6585 51.378 54.8503 51.2834 55.0546 51.2586C55.1465 51.2551 55.2367 51.2859 55.3102 51.346C55.3938 51.4337 55.45 51.5476 55.4709 51.6718C55.5175 51.8699 55.5493 52.0718 55.5658 52.2756C55.5853 52.498 55.595 52.7999 55.595 53.1812Z" fill="#0E4365"/>
<path d="M73.5692 44.045C73.2916 43.0232 72.7884 42.0909 72.1035 41.3293C71.4186 40.5676 70.5728 39.9998 69.6398 39.6754C68.4962 39.2742 67.299 39.0836 66.0976 39.1114C64.8545 39.0825 63.617 39.3006 62.4458 39.7549C61.4722 40.1317 60.5912 40.7468 59.8707 41.5526C59.1502 42.3584 58.6094 43.3334 58.2901 44.4025C57.9326 45.5756 57.7573 46.8053 57.7715 48.0411C57.7535 49.2814 57.9137 50.5171 58.2462 51.7036C58.5324 52.7157 59.0327 53.6409 59.7069 54.4047C60.4042 55.1651 61.2543 55.739 62.1902 56.0811C63.3255 56.4864 64.5158 56.6798 65.7105 56.6531C66.9535 56.6798 68.1907 56.4617 69.3623 56.0096C70.3371 55.6388 71.2203 55.0288 71.9435 54.227C72.6667 53.4252 73.2104 52.453 73.5327 51.3858C73.884 50.2167 74.0567 48.9929 74.0439 47.763C74.0665 46.5042 73.9063 45.2494 73.5692 44.045ZM69.4134 50.1067C69.2881 50.6979 69.0573 51.2566 68.7342 51.7512C68.4315 52.2029 68.0264 52.5614 67.5583 52.792C67.0264 53.0427 66.4507 53.1646 65.8712 53.1495C65.2622 53.1714 64.6569 53.0381 64.1037 52.7602C63.6403 52.5122 63.2486 52.1301 62.9717 51.6559C62.6781 51.1387 62.4728 50.5682 62.3655 49.9716C62.2348 49.2736 62.1711 48.5627 62.1756 47.8504C62.1654 47.1068 62.2415 46.3648 62.402 45.6418C62.5335 45.049 62.7664 44.4885 63.0885 43.9893C63.3885 43.533 63.7942 43.1712 64.2644 42.9406C64.7892 42.6919 65.3573 42.5699 65.9296 42.5831C66.5444 42.5578 67.1557 42.6941 67.7117 42.9804C68.1729 43.2355 68.5636 43.6194 68.8438 44.0926C69.1418 44.6073 69.3475 45.1788 69.45 45.7769C69.5726 46.4759 69.6314 47.1865 69.6252 47.8981C69.637 48.6409 69.5659 49.3825 69.4134 50.1067Z" fill="#0E4365"/>
<path d="M88.5489 41.4471C88.5515 41.7681 88.5369 42.0891 88.505 42.4084C88.4881 42.6172 88.4463 42.8229 88.3809 43.0201C88.3424 43.1474 88.2684 43.2585 88.1691 43.3379C88.086 43.395 87.9898 43.4253 87.8915 43.4253H84.0644V55.6679C84.0648 55.7786 84.0285 55.8858 83.9622 55.9698C83.8681 56.0743 83.7493 56.1486 83.6189 56.1843C83.4047 56.2526 83.1843 56.2953 82.9616 56.3114C82.6841 56.3379 82.3359 56.3512 81.9172 56.3512C81.4984 56.3512 81.1576 56.3379 80.8947 56.3114C80.6721 56.2941 80.4518 56.2515 80.2374 56.1843C80.107 56.1486 79.9882 56.0743 79.8941 55.9698C79.832 55.8837 79.7986 55.7773 79.7991 55.6679V43.4412H75.9428C75.8363 43.4441 75.7316 43.4108 75.6434 43.3458C75.5452 43.2619 75.4716 43.1487 75.4316 43.0201C75.3651 42.8177 75.3233 42.6067 75.3074 42.3925C75.2759 42.0679 75.2613 41.7416 75.2636 41.4153C75.2602 41.1203 75.2772 40.8255 75.3147 40.5334C75.34 40.3323 75.3866 40.135 75.4535 39.9455C75.4929 39.8186 75.5637 39.7059 75.658 39.6198C75.7431 39.5539 75.8458 39.5204 75.9501 39.5245H87.8623C87.9617 39.5244 88.0586 39.5577 88.1399 39.6198C88.238 39.7037 88.3116 39.8169 88.3517 39.9455C88.417 40.1401 88.4587 40.343 88.4758 40.5493C88.5164 40.8467 88.5408 41.1465 88.5489 41.4471Z" fill="#0E4365"/>
<path d="M103.426 42.4719C103.198 41.7292 102.786 41.0694 102.236 40.5652C101.623 40.0357 100.909 39.6611 100.147 39.4688C98.5045 39.0693 96.8081 39.0046 95.1439 39.2782C94.5541 39.3792 93.9709 39.5226 93.3984 39.7072C92.924 39.8556 92.4602 40.0415 92.0107 40.2633C91.7086 40.4011 91.4278 40.5887 91.1781 40.8194C91.0278 40.9739 90.917 41.1683 90.8567 41.3835C90.7912 41.6637 90.7617 41.9525 90.7691 42.2415C90.7677 42.4863 90.7848 42.7307 90.8202 42.9724C90.8472 43.1637 90.8963 43.3506 90.9663 43.5285C91.0187 43.665 91.1015 43.7852 91.2073 43.8781C91.3013 43.9571 91.4172 43.9991 91.536 43.9973C91.7938 43.9785 92.044 43.8941 92.2663 43.751C92.5536 43.5868 92.9139 43.4067 93.3473 43.2108C93.8224 42.9951 94.3105 42.8146 94.808 42.6705C95.4334 42.4988 96.0766 42.416 96.7215 42.4242C97.1845 42.413 97.6466 42.4718 98.0946 42.599C98.4271 42.6933 98.7315 42.8794 98.9783 43.1393C99.2049 43.3953 99.3683 43.7096 99.4531 44.0529C99.5557 44.4699 99.6048 44.9003 99.5992 45.332V46.2774H98.1384C96.9464 46.2642 95.7557 46.3706 94.5816 46.5952C93.6797 46.7594 92.8103 47.0898 92.0107 47.5723C91.3673 47.9615 90.8323 48.5325 90.4623 49.2248C90.1016 49.9566 89.9229 50.7782 89.9438 51.6082C89.9282 52.3657 90.0679 53.1175 90.3528 53.8089C90.6152 54.429 91.008 54.9733 91.4995 55.3978C92.0212 55.8384 92.6164 56.1648 93.2523 56.3591C93.965 56.5791 94.7026 56.6888 95.4434 56.6848C96.3589 56.6982 97.2669 56.5034 98.1092 56.1128C98.9084 55.7349 99.6345 55.1957 100.249 54.5239V55.7632C100.246 55.8346 100.258 55.9058 100.283 55.9717C100.308 56.0376 100.347 56.0967 100.395 56.1446C100.541 56.2584 100.713 56.3271 100.892 56.3432C101.263 56.3934 101.636 56.4146 102.009 56.4068C102.371 56.4131 102.732 56.3919 103.09 56.3432C103.28 56.3235 103.463 56.2554 103.623 56.1446C103.678 56.1007 103.722 56.043 103.751 55.9765C103.78 55.9101 103.794 55.8369 103.791 55.7632V45.2446C103.812 44.3047 103.689 43.3676 103.426 42.4719ZM99.5992 51.6956C99.1504 52.2337 98.6311 52.6968 98.0581 53.07C97.5533 53.3829 96.9812 53.5447 96.4002 53.5388C95.797 53.5792 95.2006 53.3817 94.7203 52.9826C94.519 52.7938 94.3598 52.5576 94.2548 52.292C94.1498 52.0263 94.1017 51.7382 94.1141 51.4493C94.108 51.0967 94.1807 50.7477 94.3259 50.4324C94.4782 50.1052 94.7108 49.8302 94.9979 49.6379C95.3654 49.4047 95.7688 49.2459 96.1884 49.1692C96.7715 49.0552 97.3634 49.002 97.9558 49.0103H99.5919V51.6638L99.5992 51.6956Z" fill="#0E4365"/>
<path d="M127.316 35.568C127.318 35.8574 127.304 36.1466 127.273 36.434C127.254 36.6297 127.212 36.822 127.148 37.006C127.104 37.1324 127.032 37.2445 126.937 37.3317C126.857 37.3982 126.759 37.4344 126.659 37.435H121.145V55.6202C121.146 55.7373 121.107 55.8507 121.035 55.938C120.935 56.0498 120.809 56.1295 120.67 56.1684C120.446 56.2391 120.216 56.287 119.984 56.3114C119.255 56.3831 118.521 56.3831 117.792 56.3114C117.56 56.2869 117.33 56.239 117.106 56.1684C116.967 56.1291 116.841 56.0495 116.741 55.938C116.669 55.8507 116.63 55.7373 116.631 55.6202V37.435H111.117C111.011 37.4393 110.908 37.4027 110.825 37.3317C110.733 37.2436 110.662 37.1315 110.62 37.006C110.556 36.8222 110.514 36.6298 110.496 36.434C110.465 36.1466 110.45 35.8574 110.452 35.568C110.45 35.2707 110.465 34.9736 110.496 34.6782C110.513 34.4771 110.555 34.2793 110.62 34.0903C110.661 33.9665 110.732 33.8568 110.825 33.7725C110.91 33.7067 111.013 33.6732 111.117 33.6772H126.644C126.744 33.6771 126.841 33.7104 126.922 33.7725C127.019 33.8546 127.092 33.9648 127.134 34.0903C127.199 34.2795 127.241 34.4771 127.258 34.6782C127.294 34.9733 127.313 35.2704 127.316 35.568Z" fill="#0E4365"/>
<path d="M137.001 56.2479L135.16 61.7535C135.078 61.9229 134.959 62.0682 134.814 62.1774C134.669 62.2866 134.503 62.3565 134.328 62.3811C133.672 62.5301 133.003 62.5941 132.334 62.5718C131.97 62.5763 131.607 62.5551 131.246 62.5082C131.031 62.4881 130.822 62.4205 130.632 62.3096C130.572 62.2752 130.521 62.2253 130.483 62.1644C130.445 62.1035 130.421 62.0333 130.413 61.96C130.408 61.784 130.443 61.6093 130.515 61.4516L132.538 56.2399C132.384 56.1649 132.247 56.0537 132.137 55.9142C132.024 55.7794 131.935 55.6232 131.874 55.4534L126.644 41.1531C126.523 40.8592 126.449 40.5448 126.425 40.2236C126.421 40.1274 126.437 40.0313 126.472 39.9431C126.508 39.8548 126.562 39.7768 126.63 39.7151C126.834 39.566 127.071 39.4783 127.316 39.4609C127.743 39.4077 128.172 39.3838 128.602 39.3894C129.089 39.3894 129.473 39.3894 129.756 39.3894C129.982 39.3942 130.206 39.4371 130.42 39.5165C130.569 39.5796 130.695 39.694 130.778 39.8422C130.879 40.0389 130.959 40.2467 131.019 40.4619L134.591 50.8694H134.642L137.921 40.2633C137.953 40.0384 138.044 39.8284 138.184 39.6595C138.355 39.5425 138.552 39.4767 138.754 39.4688C139.187 39.4105 139.624 39.3866 140.061 39.3973C140.469 39.3929 140.876 39.4168 141.281 39.4688C141.541 39.4863 141.793 39.5766 142.011 39.731C142.085 39.7905 142.144 39.8687 142.183 39.9587C142.223 40.0487 142.241 40.1478 142.238 40.2474C142.233 40.5189 142.186 40.7876 142.099 41.0419L137.001 56.2479Z" fill="#0E4365"/>
<path d="M159.657 44.3389C159.454 43.3681 159.088 42.4467 158.576 41.6218C158.087 40.8458 157.43 40.2128 156.662 39.7787C155.779 39.3083 154.804 39.0792 153.821 39.1113C153.315 39.1085 152.811 39.1671 152.317 39.2861C151.841 39.4036 151.38 39.5822 150.943 39.8184C150.485 40.0685 150.049 40.3665 149.643 40.7082C149.189 41.0915 148.755 41.5026 148.343 41.9396V40.1123C148.344 40.0042 148.313 39.8986 148.256 39.8105C148.178 39.7085 148.073 39.6339 147.956 39.596C147.774 39.5295 147.585 39.4868 147.394 39.4688C147.108 39.4381 146.82 39.4249 146.532 39.4291C146.24 39.4247 145.947 39.438 145.656 39.4688C145.464 39.4867 145.275 39.5294 145.093 39.596C144.976 39.6339 144.872 39.7085 144.794 39.8105C144.736 39.8984 144.705 40.0041 144.706 40.1123V61.8329C144.705 61.9486 144.741 62.0611 144.808 62.1507C144.903 62.2636 145.024 62.346 145.159 62.3891C145.372 62.4655 145.593 62.5161 145.816 62.54C146.506 62.6096 147.201 62.6096 147.891 62.54C148.114 62.5159 148.335 62.4653 148.548 62.3891C148.682 62.3456 148.804 62.2633 148.898 62.1507C148.966 62.0611 149.002 61.9486 149.001 61.8329V54.508C149.334 54.8446 149.686 55.1603 150.052 55.4534C150.377 55.7088 150.721 55.9322 151.082 56.1208C151.425 56.2982 151.785 56.4316 152.156 56.518C152.557 56.6076 152.966 56.6502 153.376 56.6451C154.353 56.6648 155.323 56.4505 156.217 56.0175C157.031 55.61 157.743 54.9939 158.291 54.222C158.879 53.3747 159.31 52.4115 159.562 51.3858C159.863 50.166 160.008 48.9068 159.993 47.6438C160 46.5317 159.887 45.4225 159.657 44.3389ZM155.362 49.7412C155.253 50.2987 155.066 50.8346 154.807 51.3301C154.57 51.7865 154.24 52.1779 153.843 52.4742C153.421 52.7753 152.924 52.9278 152.419 52.9111C151.804 52.8993 151.209 52.6769 150.717 52.2755C150.079 51.7535 149.502 51.1478 149.001 50.4721V45.3478C149.299 44.9341 149.623 44.5438 149.972 44.18C150.244 43.8839 150.543 43.6178 150.863 43.3855C151.128 43.1994 151.416 43.055 151.718 42.9565C151.991 42.8714 152.274 42.8286 152.558 42.8294C153.062 42.8093 153.559 42.9592 153.982 43.2584C154.369 43.5532 154.685 43.9457 154.902 44.4024C155.146 44.9131 155.314 45.4629 155.399 46.0311C155.497 46.661 155.546 47.2989 155.545 47.9378C155.543 48.5473 155.479 49.1548 155.355 49.7492L155.362 49.7412Z" fill="#0E4365"/>
<path d="M123.411 61.5238C122.358 61.5238 121.464 62.2951 121.464 63.6662C121.464 65.0006 122.309 65.7596 123.399 65.7596C124.378 65.7596 125.333 65.1353 125.333 63.6172C125.333 62.344 124.598 61.5238 123.411 61.5238ZM123.399 62.1359C124.158 62.1359 124.451 62.9317 124.451 63.6417C124.451 64.5231 124.047 65.1475 123.399 65.1475C122.823 65.1475 122.346 64.5231 122.346 63.6662C122.346 62.9317 122.676 62.1359 123.399 62.1359ZM125.015 66.9226V66.286H121.795V66.9226H125.015ZM116.359 69.2976V66.0044C116.359 64.5966 116.335 63.6784 116.286 62.6501L116.323 62.6379C116.69 63.5438 117.118 64.4497 117.584 65.3434L119.677 69.2976H120.767V61.3402H119.812V64.6088C119.812 65.8698 119.836 66.8002 119.922 67.9142L119.91 67.9265C119.567 67.094 119.138 66.2126 118.661 65.2699L116.58 61.3402H115.404V69.2976H116.359ZM117.388 84.2976H118.428V76.3402H117.51L115.772 77.2706L115.98 78.0908L117.363 77.344H117.388V84.2976Z" fill="black"/>
</g>
<defs>
<clipPath id="clip0">
<rect width="160" height="70" fill="white"/>
</clipPath>
</defs>
</svg>
