<svg width="25" height="25" viewBox="0 0 25 25" fill="none" xmlns="http://www.w3.org/2000/svg">
<path d="M17.6767 15.9319C18.887 14.2801 19.4291 12.2321 19.1945 10.1978C18.9599 8.16338 17.9659 6.2926 16.4114 4.9597C14.8569 3.6268 12.8565 2.93008 10.8105 3.00893C8.76441 3.08778 6.82356 3.93638 5.37621 5.38496C3.92887 6.83354 3.08178 8.77527 3.0044 10.8217C2.92703 12.8681 3.62508 14.8683 4.9589 16.422C6.29273 17.9758 8.16396 18.9686 10.1982 19.2017C12.2325 19.4349 14.2798 18.8913 15.9305 17.6796H15.9292C15.9667 17.7296 16.0067 17.7771 16.0517 17.8234L20.864 22.6364C21.0984 22.8709 21.4164 23.0028 21.7479 23.0029C22.0795 23.003 22.3976 22.8714 22.6321 22.637C22.8666 22.4026 22.9985 22.0846 22.9986 21.753C22.9987 21.4213 22.8671 21.1033 22.6327 20.8687L17.8204 16.0557C17.7757 16.0104 17.7277 15.9686 17.6767 15.9307V15.9319ZM17.9992 11.1264C17.9992 12.0294 17.8213 12.9234 17.4758 13.7576C17.1304 14.5918 16.624 15.3498 15.9856 15.9883C15.3472 16.6268 14.5893 17.1332 13.7553 17.4787C12.9212 17.8243 12.0272 18.0021 11.1244 18.0021C10.2216 18.0021 9.32765 17.8243 8.49356 17.4787C7.65948 17.1332 6.90162 16.6268 6.26324 15.9883C5.62486 15.3498 5.11847 14.5918 4.77298 13.7576C4.42749 12.9234 4.24967 12.0294 4.24967 11.1264C4.24967 9.30287 4.97397 7.55401 6.26324 6.26456C7.5525 4.97512 9.30112 4.25071 11.1244 4.25071C12.9477 4.25071 14.6963 4.97512 15.9856 6.26456C17.2749 7.55401 17.9992 9.30287 17.9992 11.1264Z" fill="#FF006A"/>
</svg>
