<svg width="25" height="25" viewBox="0 0 25 25" fill="none" xmlns="http://www.w3.org/2000/svg">
<path fill-rule="evenodd" clip-rule="evenodd" d="M3.90625 17.9233C3.90625 17.6822 4.00203 17.451 4.17252 17.2805C4.343 17.11 4.57424 17.0142 4.81534 17.0142H22.9972C23.2383 17.0142 23.4695 17.11 23.64 17.2805C23.8105 17.451 23.9062 17.6822 23.9062 17.9233C23.9062 18.1644 23.8105 18.3956 23.64 18.5661C23.4695 18.7366 23.2383 18.8324 22.9972 18.8324H4.81534C4.57424 18.8324 4.343 18.7366 4.17252 18.5661C4.00203 18.3956 3.90625 18.1644 3.90625 17.9233ZM3.90625 10.6506C3.90625 10.4095 4.00203 10.1782 4.17252 10.0077C4.343 9.83726 4.57424 9.74148 4.81534 9.74148H22.9972C23.2383 9.74148 23.4695 9.83726 23.64 10.0077C23.8105 10.1782 23.9062 10.4095 23.9062 10.6506C23.9062 10.8917 23.8105 11.1229 23.64 11.2934C23.4695 11.4639 23.2383 11.5597 22.9972 11.5597H4.81534C4.57424 11.5597 4.343 11.4639 4.17252 11.2934C4.00203 11.1229 3.90625 10.8917 3.90625 10.6506ZM3.90625 3.37784C3.90625 3.13673 4.00203 2.9055 4.17252 2.73502C4.343 2.56453 4.57424 2.46875 4.81534 2.46875H22.9972C23.2383 2.46875 23.4695 2.56453 23.64 2.73502C23.8105 2.9055 23.9062 3.13673 23.9062 3.37784C23.9062 3.61895 23.8105 3.85018 23.64 4.02067C23.4695 4.19115 23.2383 4.28693 22.9972 4.28693H4.81534C4.57424 4.28693 4.343 4.19115 4.17252 4.02067C4.00203 3.85018 3.90625 3.61895 3.90625 3.37784Z" fill="#FF006A"/>
</svg>
