<svg width="21" height="17" viewBox="0 0 21 17" fill="none" xmlns="http://www.w3.org/2000/svg">
<path fill-rule="evenodd" clip-rule="evenodd" d="M0.90625 15.9233C0.90625 15.6822 1.00203 15.451 1.17252 15.2805C1.343 15.11 1.57424 15.0142 1.81534 15.0142H19.9972C20.2383 15.0142 20.4695 15.11 20.64 15.2805C20.8105 15.451 20.9062 15.6822 20.9062 15.9233C20.9062 16.1644 20.8105 16.3956 20.64 16.5661C20.4695 16.7366 20.2383 16.8324 19.9972 16.8324H1.81534C1.57424 16.8324 1.343 16.7366 1.17252 16.5661C1.00203 16.3956 0.90625 16.1644 0.90625 15.9233ZM0.90625 8.65057C0.90625 8.40946 1.00203 8.17823 1.17252 8.00774C1.343 7.83726 1.57424 7.74148 1.81534 7.74148H19.9972C20.2383 7.74148 20.4695 7.83726 20.64 8.00774C20.8105 8.17823 20.9062 8.40946 20.9062 8.65057C20.9062 8.89167 20.8105 9.12291 20.64 9.29339C20.4695 9.46388 20.2383 9.55966 19.9972 9.55966H1.81534C1.57424 9.55966 1.343 9.46388 1.17252 9.29339C1.00203 9.12291 0.90625 8.89167 0.90625 8.65057ZM0.90625 1.37784C0.90625 1.13673 1.00203 0.905504 1.17252 0.735017C1.343 0.564529 1.57424 0.46875 1.81534 0.46875H19.9972C20.2383 0.46875 20.4695 0.564529 20.64 0.735017C20.8105 0.905504 20.9062 1.13673 20.9062 1.37784C20.9062 1.61895 20.8105 1.85018 20.64 2.02067C20.4695 2.19115 20.2383 2.28693 19.9972 2.28693H1.81534C1.57424 2.28693 1.343 2.19115 1.17252 2.02067C1.00203 1.85018 0.90625 1.61895 0.90625 1.37784Z" fill="#FF006A"/>
</svg>
