<svg width="21" height="21" viewBox="0 0 21 21" fill="none" xmlns="http://www.w3.org/2000/svg">
<path d="M15.6767 12.9319C16.887 11.2801 17.4291 9.23215 17.1945 7.19776C16.9599 5.16338 15.9659 3.2926 14.4114 1.9597C12.8569 0.626799 10.8565 -0.0699197 8.81047 0.0089299C6.76441 0.0877795 4.82356 0.936382 3.37621 2.38496C1.92887 3.83354 1.08178 5.77527 1.0044 7.82168C0.92703 9.86809 1.62508 11.8683 2.9589 13.422C4.29273 14.9758 6.16396 15.9686 8.19822 16.2017C10.2325 16.4349 12.2798 15.8913 13.9305 14.6796H13.9292C13.9667 14.7296 14.0067 14.7771 14.0517 14.8234L18.864 19.6364C19.0984 19.8709 19.4164 20.0028 19.7479 20.0029C20.0795 20.003 20.3976 19.8714 20.6321 19.637C20.8666 19.4026 20.9985 19.0846 20.9986 18.753C20.9987 18.4213 20.8671 18.1033 20.6327 17.8687L15.8204 13.0557C15.7757 13.0104 15.7277 12.9686 15.6767 12.9307V12.9319ZM15.9992 8.12642C15.9992 9.02935 15.8213 9.92344 15.4758 10.7576C15.1304 11.5918 14.624 12.3498 13.9856 12.9883C13.3472 13.6268 12.5893 14.1332 11.7553 14.4787C10.9212 14.8243 10.0272 15.0021 9.12441 15.0021C8.22161 15.0021 7.32765 14.8243 6.49356 14.4787C5.65948 14.1332 4.90162 13.6268 4.26324 12.9883C3.62486 12.3498 3.11847 11.5918 2.77298 10.7576C2.42749 9.92344 2.24967 9.02935 2.24967 8.12642C2.24967 6.30287 2.97397 4.55401 4.26324 3.26456C5.5525 1.97512 7.30112 1.25071 9.12441 1.25071C10.9477 1.25071 12.6963 1.97512 13.9856 3.26456C15.2749 4.55401 15.9992 6.30287 15.9992 8.12642Z" fill="#FF006A"/>
</svg>
